<?xml version="1.0" encoding="utf-8"?>
<!-- Generator: Adobe Illustrator 27.3.1, SVG Export Plug-In . SVG Version: 6.00 Build 0)  -->
<svg version="1.1" id="Слой_1" xmlns="http://www.w3.org/2000/svg" xmlns:xlink="http://www.w3.org/1999/xlink" x="0px" y="0px"
	 viewBox="0 0 85 85" style="enable-background:new 0 0 85 85;" xml:space="preserve">
<style type="text/css">
	.st0{display:none;}
	.st1{display:inline;fill:none;stroke:#000000;stroke-width:4;stroke-miterlimit:10;}
	.st2{display:inline;}
</style>
<path class="st0" d="M43,55c0.69,0.1,1.93,0.4,4,2c2.15,1.66,1.62,1.97,4,4c1.57,1.34,2.45,1.76,2.66,2.9c0.2,1.08-0.39,1.63,0,2.33
	c0.37,0.67,1.42,0.71,3.1,0.78c2.22,0.09,3.32-0.43,3.88-0.78c0.5-0.31,0.68-0.54,0.78-0.78c0.4-0.98-0.66-2.2-0.78-2.33
	c-1.28-1.43-2.93-0.9-4.66-1.55C52.75,60.34,51.67,55.8,51,53c-1.15-4.82-0.24-9,0-9c0.16,0-0.19,1.99,1,4c0.43,0.73,0.87,1.12,1,2
	c0.16,1.08-0.34,1.57,0,2c0.52,0.66,2.44,0.45,2.99-0.52c0.3-0.53,0.11-1.16,0.01-1.48c-0.55-1.83-0.75-3.78-1.57-5.51
	c-1.92-4.08-0.38-4.49-2.33-8.54c-1.15-2.39-2.68-5.55-5.43-6.21c-0.9-0.21-1.68-0.1-2.33-0.78c-0.84-0.88-0.1-1.81-0.78-3.88
	C43.4,24.57,43.38,24.72,42,22c-0.16-0.32-0.74-1.45-1-2c-1.62-3.4-1.57-6.01-2-6c-0.52,0.01-0.91,3.76-1,6
	c-0.07,1.57,0.06,1.35,0,4c-0.03,1.26-0.07,1.81,0.14,2.64c0.37,1.53,1,1.75,0.86,2.36c-0.29,1.32-3.27,0.48-5.66,2.51
	c-1.65,1.41-2.44,3.7-2.96,5.22c-1.11,3.17-0.46,3.75-1.55,10.87c-0.52,3.37-1.08,6.46,0,6.99c0.19,0.09,0.59,0.02,0.78,0
	c0.36-0.04,1.19-0.15,1.4-0.58c0.22-0.44-0.36-0.86-0.62-1.68c-0.46-1.45,0.37-3.19,0.77-3.17c0.38,0.02,0.55,1.7,0.78,3.88
	c0.3,2.9,0.44,4.35,0,5.43c-0.79,1.93-2.2,2.12-2.33,3.88c-0.02,0.33-0.06,1.53,0.78,2.33c1.06,1.02,3,0.88,3.88,0
	c0.32-0.32,0.38-0.62,0.78-2.33c0.42-1.81,0.63-2.72,0.78-3.1C36.6,57.18,38.68,55.39,41,55C41.17,54.97,41.97,54.84,43,55z"/>
<g class="st0">
	<circle class="st1" cx="42.49" cy="43.54" r="34.76"/>
	<path class="st2" d="M76.78,61.04l-6.57-2.89c-1.18-0.52-1.71-1.89-1.19-3.07v0c0.52-1.18,1.89-1.71,3.07-1.19l6.57,2.89
		c1.18,0.52,1.71,1.89,1.19,3.07v0C79.34,61.02,77.96,61.56,76.78,61.04z"/>
	<path class="st2" d="M13.29,33.26l-6.57-2.89c-1.18-0.52-1.71-1.89-1.19-3.07l0,0c0.52-1.18,1.89-1.71,3.07-1.19L15.17,29
		c1.18,0.52,1.71,1.89,1.19,3.07l0,0C15.84,33.25,14.47,33.78,13.29,33.26z"/>
	<path class="st2" d="M54.8,15.69l3.23-6.41c0.58-1.15,1.98-1.61,3.13-1.03l0,0c1.15,0.58,1.61,1.98,1.03,3.13l-3.23,6.41
		c-0.58,1.15-1.98,1.61-3.13,1.03l0,0C54.68,18.24,54.22,16.84,54.8,15.69z"/>
	<path class="st2" d="M25.19,77.59l3.23-6.41c0.58-1.15,1.98-1.61,3.13-1.03h0c1.15,0.58,1.61,1.98,1.03,3.13l-3.23,6.41
		c-0.58,1.15-1.98,1.61-3.13,1.03h0C25.07,80.14,24.61,78.74,25.19,77.59z"/>
</g>
<path d="M32.3,37.16c2.76,0.33,4.61,0.12,6.95,0c3.35-0.17,5.03-0.26,6.95,0c4.19,0.56,5.89,2.07,6.95,1.16
	c0.39-0.33,0.78-1.07,0-4.63c-0.73-3.35-1.54-7.06-4.63-11.58c-2.36-3.44-2.89-2.74-4.63-5.79c-1.35-2.37-3.35-5.86-2.32-9.26
	c0.53-1.75,1.64-2.74,1.16-3.47c-0.49-0.75-2.36-0.83-3.47,0c-1.64,1.22-0.82,3.76-1.16,8.1c-0.15,1.9-0.64,5.66-2.32,9.26
	c-1.76,3.79-3.23,3.98-5.79,9.26c-1.68,3.48-1.78,4.91-1.16,5.79C29.08,36.36,29.6,36.84,32.3,37.16z"/>
<path d="M28.82,40.64c0.68-0.27,1.11,0.76,3.47,1.16c0.89,0.15,1.88,0.18,2.7,0.2c0.53,0.02,1.07,0.02,2,0
	c2.19-0.05,2.9-0.15,4.56-0.2c0.72-0.02,1.94-0.06,3.47,0c3.2,0.13,3.53,0.52,4.97,0.2c1.91-0.42,2.29-1.31,3-1
	c0.92,0.4,0.71,2.06,1,7c0.22,3.67,0.4,3.75,0.29,5.37c-0.19,3.1-0.99,5.34-1.16,5.79c-0.67,1.77-0.92,1.54-2.32,4.63
	c-1.31,2.89-1.29,3.52-2.32,4.63c-0.1,0.11-0.84,0.84-2.32,2.32c-1.11,1.11-1.09,1.08-1.16,1.16c-1.67,1.9-1.55,3.27-2.32,3.47
	c-0.44,0.12-1.16-0.16-3.47-3.47c-2.68-3.83-2.73-4.92-4.63-6.95c-1.9-2.03-2.38-1.51-3.63-3.09c-1.57-1.98-1.79-4.03-2.16-8.49
	C28.13,44.86,27.4,41.21,28.82,40.64z"/>
<ellipse transform="matrix(0.0647 -0.9979 0.9979 0.0647 -8.1077 70.3093)" class="st0" cx="33.45" cy="39.48" rx="1.16" ry="2.32"/>
<ellipse transform="matrix(0.1539 -0.9881 0.9881 0.1539 -0.5103 78.477)" class="st0" cx="45.57" cy="39.54" rx="1.16" ry="2.32"/>
<path d="M31.14,63.79c-0.74,0.29-0.98,1.44-1.16,2.32c-0.22,1.05-0.07,1.51,0,3.47c0.08,2.28-0.11,1.97,0,3.47
	c0.15,2.02,0.53,3.12,0,3.47c-0.27,0.18-0.47-0.03-1.16,0c-1.09,0.05-2.32,0.64-2.32,1.16c0,0.64,1.92,1.07,2.32,1.16
	c0.88,0.2,1.66,0.37,2.32,0c0.9-0.51,1.07-1.75,1.16-2.32c0.91-5.82,3.72-7.66,2.32-10.42C33.84,64.59,32.11,63.41,31.14,63.79z"/>
<path d="M50.82,66.11c0.74,0.03,1.13,3.26,1.16,3.47c0.04,0.32,0.14,1.31,0,3.47c-0.18,2.75-0.61,4.31,0,4.63
	c0.14,0.07,0.48,0.05,1.16,0c0.74-0.05,0.98-0.16,1.16,0c0.25,0.22,0.17,0.79,0,1.16c-0.4,0.84-1.51,1.17-2.32,1.16
	c-0.82-0.01-1.8-0.37-2.32-1.16c-0.63-0.97,0.05-1.66,0-3.47c-0.08-2.99-2.01-4.38-1.16-5.79c0.3-0.5,0.56-0.36,1.16-1.16
	C50.59,67.19,50.5,66.09,50.82,66.11z"/>
<path d="M26.51,45.27c-0.29-0.08-0.72-0.14-1.16,0c-1.83,0.6-2.17,4.19-2.32,5.79c-0.29,3.15,0.51,3.19,0,5.79
	c-0.19,0.95-0.47,1.79,0,2.32c0.53,0.59,1.84,0.58,2.32,0c0.28-0.34,0.11-0.66,0-2.32c-0.07-1.13-0.11-1.7,0-2.32
	c0.18-0.97,0.6-1.36,1.16-2.32c0.42-0.71,2.22-3.78,1.16-5.79C27.5,46.11,27.18,45.67,26.51,45.27z"/>
<path d="M54.29,47.58c0.17-0.51,0.61-1.02,1.16-1.16c1.08-0.27,2.17,0.99,2.32,1.16c1.59,1.89,1.53,5.48,1.16,6.95
	c-0.06,0.25-0.2,0.71,0,1.16c0.3,0.68,1.07,0.67,1.16,1.16c0.08,0.46-0.49,1.17-1.16,1.16c-0.79-0.01-1.12-1.02-1.16-1.16
	c-0.14-0.47,0.02-0.66,0-1.16c-0.03-0.85-0.5-1.27-1.16-2.32c-0.13-0.21-0.47-0.91-1.16-2.32C54.23,48.56,54.13,48.09,54.29,47.58z"
	/>
<path d="M30.99,38.76c0.43-0.9,5,0.24,5.01,0.24c0,0,0.3,0.07,0.54,0.2c0.17,0.09,0.29,0.15,0.37,0.27c0.18,0.27,0.03,0.66,0,0.71
	c-0.51,0.94-3.49,1.23-5.08,0C31.49,39.91,30.79,39.17,30.99,38.76z"/>
<path d="M48.54,38.86c-0.24-0.5-1.75-0.38-4.8-0.13c-0.07,0.01-0.14,0.01-0.14,0.01c-0.03,0-0.09,0.01-0.15,0.02
	c-0.06,0.01-0.14,0.02-0.24,0.06c-0.15,0.05-0.26,0.13-0.28,0.14c-0.03,0.02-0.08,0.06-0.13,0.11c0,0-0.13,0.13-0.21,0.29
	c-0.13,0.26-0.06,0.64-0.02,0.71c0.48,0.96,3.45,1.35,5.08,0.17C47.78,40.16,48.81,39.4,48.54,38.86z"/>
</svg>
